<svg width="400" height="378" viewBox="0 0 400 378" fill="none" xmlns="http://www.w3.org/2000/svg">
<path d="M114.262 38.849C105.878 38.8716 97.6886 41.3799 90.73 46.0567C83.7714 50.7335 78.3559 57.3688 75.1684 65.1233C71.9808 72.8779 71.1643 81.4036 72.8221 89.6223C74.4799 97.8409 78.5377 105.383 84.4821 111.296C90.4266 117.208 97.9908 121.225 106.218 122.839C114.446 124.452 122.967 123.59 130.704 120.361C138.441 117.131 145.047 111.68 149.687 104.696C154.326 97.7127 156.79 89.5101 156.767 81.126C156.767 75.5548 155.666 70.0385 153.528 64.8943C151.389 59.7501 148.254 55.0793 144.304 51.1506C140.354 47.2218 135.666 44.1124 130.511 42.0013C125.355 39.8902 119.833 38.8189 114.262 38.849ZM114.262 100.665C110.402 100.642 106.636 99.4771 103.438 97.3165C100.24 95.1559 97.7534 92.0965 96.2921 88.5243C94.8307 84.9521 94.4601 81.0272 95.2268 77.2446C95.9936 73.462 97.8634 69.9912 100.6 67.2701C103.338 64.5489 106.819 62.6993 110.606 61.9546C114.393 61.21 118.316 61.6035 121.88 63.0856C125.443 64.5678 128.488 67.0721 130.63 70.2828C132.772 73.4934 133.915 77.2664 133.915 81.126C133.93 83.7058 133.432 86.2628 132.448 88.6478C131.464 91.0327 130.015 93.1979 128.186 95.0168C126.356 96.8357 124.183 98.2719 121.792 99.2416C119.401 100.211 116.842 100.695 114.262 100.665ZM114.262 38.849C105.878 38.8716 97.6886 41.3799 90.73 46.0567C83.7714 50.7335 78.3559 57.3688 75.1684 65.1233C71.9808 72.8779 71.1643 81.4036 72.8221 89.6223C74.4799 97.8409 78.5377 105.383 84.4821 111.296C90.4266 117.208 97.9908 121.225 106.218 122.839C114.446 124.452 122.967 123.59 130.704 120.361C138.441 117.131 145.047 111.68 149.687 104.696C154.326 97.7127 156.79 89.5101 156.767 81.126C156.767 75.5548 155.666 70.0385 153.528 64.8943C151.389 59.7501 148.254 55.0793 144.304 51.1506C140.354 47.2218 135.666 44.1124 130.511 42.0013C125.355 39.8902 119.833 38.8189 114.262 38.849ZM114.262 100.665C110.402 100.642 106.636 99.4771 103.438 97.3165C100.24 95.1559 97.7534 92.0965 96.2921 88.5243C94.8307 84.9521 94.4601 81.0272 95.2268 77.2446C95.9936 73.462 97.8634 69.9912 100.6 67.2701C103.338 64.5489 106.819 62.6993 110.606 61.9546C114.393 61.21 118.316 61.6035 121.88 63.0856C125.443 64.5678 128.488 67.0721 130.63 70.2828C132.772 73.4934 133.915 77.2664 133.915 81.126C133.93 83.7058 133.432 86.2628 132.448 88.6478C131.464 91.0327 130.015 93.1979 128.186 95.0168C126.356 96.8357 124.183 98.2719 121.792 99.2416C119.401 100.211 116.842 100.695 114.262 100.665Z" fill="#7F7F7F"/>
<path d="M308.507 194.245C286.238 194.238 264.731 202.36 248.026 217.087C231.321 231.815 220.567 252.134 217.783 274.229H41.4771C39.0463 274.244 36.6363 273.78 34.3847 272.864C32.1332 271.947 30.0842 270.596 28.3547 268.888C26.6252 267.18 25.2491 265.148 24.3051 262.908C23.361 260.668 22.8674 258.264 22.8524 255.833V254.919L96.6657 181.905C102.102 176.686 109.228 173.586 116.753 173.166C124.277 172.747 131.703 175.037 137.686 179.62L155.968 197.673L157.339 198.93C161.222 201.746 165.943 203.166 170.735 202.958C175.527 202.751 180.108 200.929 183.733 197.788L242.235 140.657C249.443 133.544 258.465 128.546 268.317 126.209C278.17 123.872 288.475 124.284 298.11 127.402C304.242 129.428 309.967 132.522 315.02 136.543L319.934 141.342V148.541C319.934 151.571 321.137 154.477 323.28 156.62C325.423 158.763 328.329 159.967 331.36 159.967C334.39 159.967 337.297 158.763 339.439 156.62C341.582 154.477 342.786 151.571 342.786 148.541V41.4771C342.786 30.5162 338.448 20.0008 330.719 12.2289C322.989 4.45693 312.498 0.0603908 301.537 0H41.4771C30.4767 0 19.9268 4.3699 12.1484 12.1484C4.3699 19.9268 0 30.4767 0 41.4771V255.833C0.0603908 266.793 4.45693 277.285 12.2289 285.014C20.0008 292.743 30.5162 297.081 41.4771 297.081H217.898C220.097 314.538 227.288 330.99 238.607 344.46C249.926 357.931 264.893 367.849 281.71 373.023C298.527 378.197 316.48 378.408 333.414 373.629C350.348 368.851 365.543 359.287 377.175 346.086C388.807 332.884 396.382 316.606 398.99 299.205C401.598 281.805 399.129 264.021 391.879 247.989C384.629 231.957 372.906 218.358 358.117 208.825C343.328 199.292 326.103 194.229 308.507 194.245ZM22.8524 41.4771C22.8524 39.0313 23.3341 36.6094 24.2701 34.3497C25.2061 32.0901 26.578 30.0369 28.3075 28.3075C30.0369 26.578 32.0901 25.2061 34.3497 24.2701C36.6094 23.3341 39.0313 22.8524 41.4771 22.8524H301.537C303.968 22.8674 306.372 23.361 308.612 24.3051C310.853 25.2491 312.885 26.6252 314.593 28.3547C316.301 30.0842 317.652 32.1332 318.568 34.3847C319.485 36.6363 319.949 39.0463 319.934 41.4771V111.863C315.273 109.053 310.284 106.827 305.08 105.235C291.471 100.856 276.924 100.276 263.01 103.558C249.095 106.84 236.341 113.86 226.125 123.86L169.908 179.277L164.195 173.678L155.968 165.68C145.843 155.872 132.3 150.388 118.204 150.388C104.108 150.388 90.5649 155.872 80.4405 165.68L22.8524 222.811V41.4771ZM308.507 354.212C294.948 354.212 281.693 350.191 270.419 342.658C259.145 335.125 250.358 324.418 245.169 311.891C239.98 299.364 238.622 285.579 241.268 272.28C243.913 258.981 250.442 246.766 260.03 237.178C269.618 227.59 281.834 221.06 295.133 218.415C308.431 215.77 322.216 217.128 334.743 222.316C347.27 227.505 357.978 236.293 365.511 247.567C373.044 258.841 377.065 272.096 377.065 285.655C377.065 303.838 369.842 321.275 356.985 334.132C344.128 346.989 326.69 354.212 308.507 354.212Z" fill="#7F7F7F"/>
<path d="M344.614 307.022C346.124 308.65 347.127 310.682 347.5 312.871C347.873 315.059 347.601 317.309 346.716 319.345C345.831 321.382 344.372 323.116 342.518 324.336C340.663 325.557 338.493 326.211 336.273 326.218C334.734 326.212 333.212 325.895 331.798 325.287C330.384 324.678 329.108 323.79 328.046 322.676L309.993 303.48L291.939 322.676C290.946 323.891 289.713 324.889 288.317 325.606C286.921 326.324 285.393 326.747 283.826 326.847C282.26 326.948 280.69 326.725 279.213 326.192C277.737 325.66 276.386 324.828 275.245 323.75C274.104 322.672 273.198 321.371 272.582 319.927C271.966 318.483 271.655 316.928 271.666 315.359C271.678 313.789 272.013 312.239 272.651 310.804C273.288 309.37 274.214 308.082 275.371 307.022L294.339 286.912L275.371 266.802C274.106 265.77 273.076 264.48 272.351 263.017C271.626 261.554 271.223 259.952 271.169 258.321C271.115 256.689 271.412 255.064 272.039 253.557C272.666 252.049 273.608 250.694 274.803 249.581C275.998 248.468 277.418 247.625 278.966 247.107C280.515 246.59 282.156 246.41 283.78 246.58C285.404 246.75 286.972 247.266 288.38 248.093C289.787 248.921 291.001 250.04 291.939 251.376L309.993 270.572L328.046 251.376C330.175 249.424 332.965 248.352 335.853 248.373C338.742 248.395 341.515 249.51 343.614 251.494C345.714 253.477 346.984 256.183 347.17 259.065C347.355 261.948 346.442 264.794 344.614 267.03L325.647 286.912L344.614 307.022Z" fill="#7F7F7F"/>
</svg>
