<svg width="246" height="31" viewBox="0 0 246 31" fill="none" xmlns="http://www.w3.org/2000/svg">
<path d="M174.346 22.216C173.506 22.216 172.744 22.024 172.06 21.64C171.388 21.256 170.854 20.716 170.458 20.02C170.062 19.312 169.864 18.484 169.864 17.536C169.864 16.612 170.056 15.802 170.44 15.106C170.824 14.398 171.352 13.846 172.024 13.45C172.696 13.054 173.47 12.856 174.346 12.856C175.402 12.856 176.29 13.132 177.01 13.684C177.742 14.236 178.204 14.974 178.396 15.898H176.848C176.728 15.346 176.434 14.92 175.966 14.62C175.498 14.308 174.952 14.152 174.328 14.152C173.692 14.152 173.158 14.308 172.726 14.62C172.294 14.932 171.964 15.346 171.736 15.862C171.52 16.378 171.412 16.936 171.412 17.536C171.412 18.196 171.538 18.784 171.79 19.3C172.042 19.816 172.384 20.218 172.816 20.506C173.26 20.794 173.764 20.938 174.328 20.938C174.952 20.938 175.498 20.788 175.966 20.488C176.434 20.176 176.728 19.738 176.848 19.174H178.396C178.276 19.774 178.03 20.302 177.658 20.758C177.286 21.214 176.818 21.574 176.254 21.838C175.69 22.09 175.054 22.216 174.346 22.216ZM184.27 22.216C183.454 22.216 182.704 22.036 182.02 21.676C181.336 21.304 180.79 20.77 180.382 20.074C179.974 19.366 179.77 18.514 179.77 17.518C179.77 16.57 179.968 15.748 180.364 15.052C180.772 14.356 181.318 13.816 182.002 13.432C182.698 13.048 183.478 12.856 184.342 12.856C185.17 12.856 185.926 13.036 186.61 13.396C187.306 13.756 187.864 14.284 188.284 14.98C188.704 15.676 188.914 16.522 188.914 17.518C188.914 18.43 188.716 19.24 188.32 19.948C187.924 20.656 187.372 21.214 186.664 21.622C185.968 22.018 185.17 22.216 184.27 22.216ZM184.27 20.902C184.858 20.902 185.386 20.764 185.854 20.488C186.322 20.2 186.694 19.804 186.97 19.3C187.246 18.796 187.384 18.202 187.384 17.518C187.384 16.87 187.264 16.294 187.024 15.79C186.784 15.286 186.436 14.89 185.98 14.602C185.524 14.314 184.972 14.17 184.324 14.17C183.664 14.17 183.106 14.32 182.65 14.62C182.206 14.92 181.87 15.322 181.642 15.826C181.414 16.33 181.3 16.894 181.3 17.518C181.3 18.31 181.444 18.958 181.732 19.462C182.02 19.954 182.392 20.32 182.848 20.56C183.304 20.788 183.778 20.902 184.27 20.902ZM190.651 22V13.072H192.019L192.127 14.368C192.415 13.888 192.799 13.516 193.279 13.252C193.759 12.988 194.299 12.856 194.899 12.856C195.607 12.856 196.213 13 196.717 13.288C197.233 13.576 197.629 14.014 197.905 14.602C198.217 14.062 198.643 13.636 199.183 13.324C199.735 13.012 200.329 12.856 200.965 12.856C201.685 12.856 202.303 13 202.819 13.288C203.347 13.564 203.755 13.996 204.043 14.584C204.331 15.16 204.475 15.892 204.475 16.78V22H202.981V16.942C202.981 16.018 202.795 15.322 202.423 14.854C202.051 14.386 201.517 14.152 200.821 14.152C200.101 14.152 199.501 14.434 199.021 14.998C198.553 15.55 198.319 16.342 198.319 17.374V22H196.807V16.942C196.807 16.018 196.621 15.322 196.249 14.854C195.877 14.386 195.343 14.152 194.647 14.152C193.939 14.152 193.345 14.434 192.865 14.998C192.397 15.55 192.163 16.342 192.163 17.374V22H190.651ZM206.392 25.96V13.072H207.76L207.904 14.548C208.192 14.116 208.6 13.726 209.128 13.378C209.668 13.03 210.352 12.856 211.18 12.856C212.08 12.856 212.86 13.06 213.52 13.468C214.18 13.876 214.69 14.434 215.05 15.142C215.41 15.85 215.59 16.654 215.59 17.554C215.59 18.442 215.41 19.24 215.05 19.948C214.69 20.656 214.174 21.214 213.502 21.622C212.842 22.018 212.062 22.216 211.162 22.216C210.43 22.216 209.776 22.066 209.2 21.766C208.636 21.466 208.204 21.046 207.904 20.506V25.96H206.392ZM211 20.902C211.612 20.902 212.146 20.764 212.602 20.488C213.058 20.2 213.412 19.804 213.664 19.3C213.928 18.784 214.06 18.196 214.06 17.536C214.06 16.9 213.934 16.33 213.682 15.826C213.442 15.31 213.094 14.908 212.638 14.62C212.182 14.32 211.636 14.17 211 14.17C210.4 14.17 209.866 14.314 209.398 14.602C208.942 14.878 208.582 15.268 208.318 15.772C208.066 16.276 207.94 16.864 207.94 17.536C207.94 18.16 208.066 18.73 208.318 19.246C208.57 19.75 208.924 20.152 209.38 20.452C209.836 20.752 210.376 20.902 211 20.902ZM220.305 22.216C219.693 22.216 219.135 22.114 218.631 21.91C218.127 21.706 217.725 21.4 217.425 20.992C217.137 20.572 216.993 20.062 216.993 19.462C216.993 18.766 217.173 18.214 217.533 17.806C217.893 17.386 218.367 17.086 218.955 16.906C219.555 16.714 220.197 16.618 220.881 16.618H223.293C223.293 15.994 223.185 15.502 222.969 15.142C222.765 14.782 222.495 14.524 222.159 14.368C221.823 14.212 221.451 14.134 221.043 14.134C220.455 14.134 219.945 14.278 219.513 14.566C219.093 14.842 218.829 15.274 218.721 15.862H217.173C217.233 15.214 217.449 14.668 217.821 14.224C218.193 13.78 218.661 13.444 219.225 13.216C219.801 12.976 220.407 12.856 221.043 12.856C221.943 12.856 222.669 13.024 223.221 13.36C223.773 13.684 224.175 14.122 224.427 14.674C224.679 15.226 224.805 15.838 224.805 16.51V19.246C224.805 19.69 224.859 20.026 224.967 20.254C225.075 20.482 225.351 20.62 225.795 20.668V22C225.399 22 225.039 21.952 224.715 21.856C224.391 21.748 224.115 21.58 223.887 21.352C223.671 21.112 223.515 20.8 223.419 20.416C223.119 20.92 222.705 21.346 222.177 21.694C221.661 22.042 221.037 22.216 220.305 22.216ZM220.539 20.938C221.139 20.938 221.643 20.788 222.051 20.488C222.459 20.176 222.765 19.78 222.969 19.3C223.185 18.82 223.293 18.322 223.293 17.806V17.788H221.007C220.587 17.788 220.191 17.836 219.819 17.932C219.447 18.016 219.147 18.178 218.919 18.418C218.691 18.646 218.577 18.97 218.577 19.39C218.577 19.93 218.769 20.326 219.153 20.578C219.537 20.818 219.999 20.938 220.539 20.938ZM227.258 22V13.072H228.626L228.716 14.674C229.004 14.11 229.418 13.666 229.958 13.342C230.498 13.018 231.11 12.856 231.794 12.856C232.85 12.856 233.69 13.18 234.314 13.828C234.95 14.464 235.268 15.448 235.268 16.78V22H233.756V16.942C233.756 16.018 233.564 15.322 233.18 14.854C232.796 14.386 232.22 14.152 231.452 14.152C230.684 14.152 230.042 14.434 229.526 14.998C229.022 15.55 228.77 16.342 228.77 17.374V22H227.258ZM237.925 25.96L239.905 21.64L236.071 13.072H237.709L240.661 20.02L243.793 13.072H245.359L239.509 25.96H237.925Z" fill="white"/>
<path d="M4.212 21.216C3.6 21.216 3.042 21.114 2.538 20.91C2.034 20.706 1.632 20.4 1.332 19.992C1.044 19.572 0.9 19.062 0.9 18.462C0.9 17.766 1.08 17.214 1.44 16.806C1.8 16.386 2.274 16.086 2.862 15.906C3.462 15.714 4.104 15.618 4.788 15.618H7.2C7.2 14.994 7.092 14.502 6.876 14.142C6.672 13.782 6.402 13.524 6.066 13.368C5.73 13.212 5.358 13.134 4.95 13.134C4.362 13.134 3.852 13.278 3.42 13.566C3 13.842 2.736 14.274 2.628 14.862H1.08C1.14 14.214 1.356 13.668 1.728 13.224C2.1 12.78 2.568 12.444 3.132 12.216C3.708 11.976 4.314 11.856 4.95 11.856C5.85 11.856 6.576 12.024 7.128 12.36C7.68 12.684 8.082 13.122 8.334 13.674C8.586 14.226 8.712 14.838 8.712 15.51V18.246C8.712 18.69 8.766 19.026 8.874 19.254C8.982 19.482 9.258 19.62 9.702 19.668V21C9.306 21 8.946 20.952 8.622 20.856C8.298 20.748 8.022 20.58 7.794 20.352C7.578 20.112 7.422 19.8 7.326 19.416C7.026 19.92 6.612 20.346 6.084 20.694C5.568 21.042 4.944 21.216 4.212 21.216ZM4.446 19.938C5.046 19.938 5.55 19.788 5.958 19.488C6.366 19.176 6.672 18.78 6.876 18.3C7.092 17.82 7.2 17.322 7.2 16.806V16.788H4.914C4.494 16.788 4.098 16.836 3.726 16.932C3.354 17.016 3.054 17.178 2.826 17.418C2.598 17.646 2.484 17.97 2.484 18.39C2.484 18.93 2.676 19.326 3.06 19.578C3.444 19.818 3.906 19.938 4.446 19.938Z" fill="white"/>
<g clip-path="url(#clip0_7462_923)">
<mask id="mask0_7462_923" style="mask-type:luminance" maskUnits="userSpaceOnUse" x="20" y="4" width="142" height="17">
<path d="M162 4.00146H20V20.9852H162V4.00146Z" fill="white"/>
</mask>
<g mask="url(#mask0_7462_923)">
<path d="M26.075 9.47821C25.7819 9.25875 25.6152 8.92459 25.6241 8.57434C25.6138 8.21912 25.8164 7.88812 26.1496 7.71566C26.5908 7.49286 27.0895 7.3881 27.5906 7.41287C28.2107 7.40808 28.8236 7.53579 29.3825 7.78616C29.9852 8.07016 30.5331 8.44554 31.0038 8.89702L33.841 6.2758C33.1004 5.53634 32.1883 4.96446 31.1744 4.60364C30.0491 4.19409 28.85 3.98973 27.6419 4.00166C26.4878 3.97924 25.3414 4.18433 24.2782 4.60364C23.3687 4.96636 22.588 5.56174 22.0266 6.32099C21.4703 7.12046 21.1891 8.05931 21.2208 9.01181C21.1943 9.72379 21.3468 10.4316 21.6659 11.079C21.9511 11.6152 22.3534 12.0899 22.8469 12.4727C23.3445 12.8454 23.8889 13.1602 24.4682 13.41C25.0417 13.661 25.6318 13.8773 26.235 14.0581C26.8255 14.2389 27.3607 14.4197 27.8514 14.6176C28.285 14.7766 28.6861 15.0038 29.0373 15.2892C29.3274 15.5346 29.4897 15.8848 29.4824 16.25C29.49 16.6592 29.2557 17.0391 28.8725 17.2388C28.3438 17.5061 27.746 17.6312 27.1455 17.6004C26.3278 17.6132 25.5178 17.4503 24.7785 17.1241C24.0403 16.776 23.3745 16.3083 22.812 15.7429L20 18.3877C20.826 19.2382 21.8399 19.9117 22.972 20.3617C24.1985 20.8033 25.5063 21.0155 26.8206 20.9863C28.6633 21.089 30.49 20.6146 32.0103 19.6386C33.2527 18.7258 33.9443 17.3089 33.8662 15.836C33.8881 15.1017 33.7341 14.372 33.4153 13.7002C33.1405 13.1392 32.7375 12.6409 32.2343 12.2404C31.7484 11.856 31.2081 11.5358 30.6285 11.2887C30.0562 11.0429 29.47 10.8262 28.8725 10.6397C28.2907 10.4535 27.7467 10.2718 27.256 10.0974C26.8287 9.9541 26.4297 9.74621 26.075 9.48183M44.7711 7.85486H50.1712V4.27282H34.9125V7.85034H40.3116V20.7341H44.7721L44.7711 7.85486ZM55.4297 16.2844L52.3869 14.2154L49.6098 20.7459H53.6824L55.4297 16.2844ZM60.3692 14.1991H64.2973L60.1394 4.3144H56.5962L52.3927 14.1937H56.251L58.3271 8.92775L60.3692 14.1991ZM62.9117 20.7486H67.055L64.3031 14.2136L61.2002 16.3223L62.9117 20.7486ZM78.5795 9.24411C78.6077 9.75362 78.395 10.249 77.9977 10.5999C77.525 10.9582 76.9243 11.1365 76.3163 11.0989H73.8699V7.36496H76.3115C76.9239 7.32555 77.5283 7.51338 77.9929 7.8874C78.3837 8.24235 78.595 8.73496 78.5747 9.2432M84.1241 20.7323L78.7192 13.8719C79.1678 13.7783 79.6042 13.6392 80.0205 13.457C80.903 13.0841 81.6569 12.4895 82.1974 11.7397C82.7301 10.9777 83.0038 10.0838 82.9828 9.17451C83.0055 8.27136 82.7374 7.38259 82.2129 6.62288C81.6825 5.88243 80.9475 5.28904 80.0854 4.90553C79.1019 4.4686 78.0224 4.25194 76.933 4.27282H69.4162V20.7341H73.8699V14.0726H74.1346L78.9742 20.7332L84.1241 20.7323ZM86.0634 20.7323H98.1212V17.1557H90.5297V4.27282H86.0692L86.0634 20.7323ZM100.676 20.7323H105.137V4.27282H100.676V20.7323ZM125.204 16.8366C126.014 15.2841 126.408 13.5712 126.35 11.8454V11.2182H116.842V14.6041L121.593 14.7161C121.521 14.9161 121.434 15.111 121.332 15.2991C120.996 15.9332 120.456 16.4534 119.787 16.7869C119.028 17.146 118.185 17.3211 117.334 17.2958C116.441 17.3116 115.56 17.1037 114.782 16.6938C114.043 16.2914 113.439 15.7052 113.037 15.0009C112.601 14.2201 112.383 13.3499 112.402 12.47C112.383 11.5933 112.621 10.7283 113.088 9.9672C113.516 9.27267 114.139 8.70016 114.89 8.31131C115.678 7.90783 116.567 7.70346 117.466 7.71837C118.327 7.69975 119.181 7.87095 119.958 8.21821C120.717 8.58582 121.387 9.09542 121.926 9.71502L124.913 6.9302C124.077 5.99026 123.009 5.25252 121.801 4.77989C120.444 4.24697 118.984 3.98195 117.513 4.00166C116.232 3.99172 114.962 4.20638 113.767 4.63437C112.628 5.04274 111.583 5.6505 110.689 6.42494C109.814 7.1812 109.116 8.09755 108.637 9.11666C108.139 10.1799 107.888 11.3296 107.901 12.4899C107.888 13.6413 108.13 14.7829 108.612 15.8433C109.075 16.8627 109.753 17.7847 110.607 18.554C111.465 19.331 112.481 19.9415 113.594 20.35C114.777 20.7858 116.04 21.0028 117.312 20.989C118.956 21.0242 120.582 20.6611 122.03 19.9351C123.395 19.2199 124.5 18.1414 125.203 16.8375M139.77 20.7368H144.224V4.27282H139.77V10.5701H133.42V4.27282H128.966V20.7341H133.42V14.0455H139.77V20.7368ZM162 7.85034V4.27282H146.742V7.85034H152.141V20.7341H156.602V7.85034H162Z" fill="white"/>
</g>
</g>
<defs>
<clipPath id="clip0_7462_923">
<rect width="142" height="17" fill="white" transform="translate(20 4)"/>
</clipPath>
</defs>
</svg>
