<svg width="10" height="10" viewBox="0 0 10 10" fill="none" xmlns="http://www.w3.org/2000/svg">
<path d="M4.59595 2.97852C4.16497 2.97852 3.75165 3.14972 3.4469 3.45447C3.14215 3.75921 2.97095 4.17254 2.97095 4.60352C2.97095 5.03449 3.14215 5.44782 3.4469 5.75256C3.75165 6.05731 4.16497 6.22852 4.59595 6.22852C5.02692 6.22852 5.44025 6.05731 5.745 5.75256C6.04974 5.44782 6.22095 5.03449 6.22095 4.60352C6.22095 4.17254 6.04974 3.75921 5.745 3.45447C5.44025 3.14972 5.02692 2.97852 4.59595 2.97852Z" fill="black"/>
<path fill-rule="evenodd" clip-rule="evenodd" d="M1.98101 0.144402C3.71902 -0.0481339 5.47299 -0.0481339 7.21101 0.144402C8.16051 0.250402 8.92601 0.997902 9.03751 1.9509C9.24348 3.71324 9.24348 5.49357 9.03751 7.2559C8.92601 8.2089 8.16051 8.9564 7.21151 9.0629C5.47332 9.25547 3.71919 9.25547 1.98101 9.0629C1.03151 8.9564 0.266007 8.2089 0.154507 7.2564C-0.0515022 5.4939 -0.0515022 3.7134 0.154507 1.9509C0.266007 0.997902 1.03151 0.250402 1.98101 0.144402ZM7.09601 1.6034C6.9634 1.6034 6.83622 1.65608 6.74245 1.74985C6.64868 1.84362 6.59601 1.97079 6.59601 2.1034C6.59601 2.23601 6.64868 2.36319 6.74245 2.45695C6.83622 2.55072 6.9634 2.6034 7.09601 2.6034C7.22861 2.6034 7.35579 2.55072 7.44956 2.45695C7.54333 2.36319 7.59601 2.23601 7.59601 2.1034C7.59601 1.97079 7.54333 1.84362 7.44956 1.74985C7.35579 1.65608 7.22861 1.6034 7.09601 1.6034ZM2.22101 4.6034C2.22101 3.97351 2.47123 3.36942 2.91663 2.92402C3.36203 2.47862 3.96612 2.2284 4.59601 2.2284C5.2259 2.2284 5.82999 2.47862 6.27538 2.92402C6.72078 3.36942 6.97101 3.97351 6.97101 4.6034C6.97101 5.23329 6.72078 5.83738 6.27538 6.28278C5.82999 6.72818 5.2259 6.9784 4.59601 6.9784C3.96612 6.9784 3.36203 6.72818 2.91663 6.28278C2.47123 5.83738 2.22101 5.23329 2.22101 4.6034Z" fill="black"/>
</svg>
