<svg width="9" height="9" viewBox="0 0 9 9" fill="none" xmlns="http://www.w3.org/2000/svg">
<path d="M8.33301 6.95585e-06H0.653007C0.567143 -0.000390264 0.48205 0.0162289 0.402645 0.0489046C0.323241 0.0815802 0.251097 0.129665 0.190381 0.190381C0.129665 0.251097 0.0815802 0.323241 0.0489046 0.402645C0.0162289 0.48205 -0.000390264 0.567143 6.95585e-06 0.653007V8.34701C6.95585e-06 8.69501 0.290007 9.00001 0.653007 9.00001H8.30301C8.38891 9.00047 8.47406 8.9839 8.55352 8.95125C8.63299 8.91861 8.70519 8.87053 8.76596 8.80981C8.82673 8.74909 8.87486 8.67692 8.90756 8.59748C8.94027 8.51805 8.95691 8.43291 8.95651 8.34701V0.638507C8.98601 0.290507 8.69551 6.95585e-06 8.33301 6.95585e-06ZM2.65651 7.65001H1.33601V3.36751H2.65701L2.65651 7.65001ZM1.98901 2.77251C1.88783 2.77304 1.78755 2.75349 1.69398 2.715C1.60041 2.67651 1.5154 2.61985 1.44388 2.54828C1.37236 2.47671 1.31575 2.39167 1.27732 2.29807C1.23889 2.20447 1.21941 2.10418 1.22001 2.00301C1.22001 1.58251 1.56801 1.23401 1.98901 1.23401C2.41001 1.23401 2.75901 1.58251 2.75901 2.00301C2.75901 2.42351 2.43901 2.77251 1.98901 2.77251ZM7.66501 7.65001H6.34401V5.57401C6.34401 5.08051 6.32951 4.42751 5.64751 4.42751C4.95051 4.42751 4.84901 4.97901 4.84901 5.53051V7.65001H3.52801V3.36751H4.82001V3.96251H4.83451C5.02301 3.61451 5.44451 3.26601 6.09751 3.26601C7.44751 3.26601 7.69401 4.13701 7.69401 5.32751V7.65001H7.66501Z" fill="black"/>
</svg>
