<svg width="9" height="9" viewBox="0 0 9 9" fill="none" xmlns="http://www.w3.org/2000/svg">
<path d="M5.66518 4.37891L3.75268 3.32227V5.43555L5.66518 4.37891ZM7.71429 0H1.28571C0.576563 0 0 0.560547 0 1.25V7.5C0 8.18945 0.576563 8.75 1.28571 8.75H7.71429C8.42344 8.75 9 8.18945 9 7.5V1.25C9 0.560547 8.42344 0 7.71429 0ZM8.00357 2.6582C8.15625 3.2168 8.15625 4.38086 8.15625 4.38086C8.15625 4.38086 8.15625 5.54492 8.00357 6.10156C7.9192 6.41016 7.6721 6.64258 7.3567 6.72461C6.78817 6.875 4.5 6.875 4.5 6.875C4.5 6.875 2.21183 6.875 1.6433 6.72656C1.3279 6.64453 1.0808 6.41211 0.996429 6.10352C0.84375 5.54492 0.84375 4.38086 0.84375 4.38086C0.84375 4.38086 0.84375 3.21484 0.996429 2.6582C1.0808 2.34961 1.3279 2.10742 1.6433 2.02539C2.21183 1.875 4.5 1.875 4.5 1.875C4.5 1.875 6.78817 1.875 7.3567 2.02539C7.6721 2.10742 7.9192 2.34961 8.00357 2.6582Z" fill="black"/>
</svg>
