<svg width="17" height="16" viewBox="0 0 17 16" fill="none" xmlns="http://www.w3.org/2000/svg">
<path d="M0 1.0056C0 0.738895 0.0790175 0.483118 0.21967 0.294532C0.360322 0.105946 0.551088 0 0.75 0H15.75C15.9489 0 16.1397 0.105946 16.2803 0.294532C16.421 0.483118 16.5 0.738895 16.5 1.0056C16.5 1.2723 16.421 1.52807 16.2803 1.71666C16.1397 1.90524 15.9489 2.01119 15.75 2.01119H0.75C0.551088 2.01119 0.360322 1.90524 0.21967 1.71666C0.0790175 1.52807 0 1.2723 0 1.0056ZM2.5 7.70956C2.5 7.44286 2.57902 7.18709 2.71967 6.9985C2.86032 6.80991 3.05109 6.70397 3.25 6.70397H13.25C13.4489 6.70397 13.6397 6.80991 13.7803 6.9985C13.921 7.18709 14 7.44286 14 7.70956C14 7.97626 13.921 8.23204 13.7803 8.42062C13.6397 8.60921 13.4489 8.71516 13.25 8.71516H3.25C3.05109 8.71516 2.86032 8.60921 2.71967 8.42062C2.57902 8.23204 2.5 7.97626 2.5 7.70956ZM5.5 14.4135C5.5 14.1468 5.57902 13.8911 5.71967 13.7025C5.86032 13.5139 6.05109 13.4079 6.25 13.4079H10.25C10.4489 13.4079 10.6397 13.5139 10.7803 13.7025C10.921 13.8911 11 14.1468 11 14.4135C11 14.6802 10.921 14.936 10.7803 15.1246C10.6397 15.3132 10.4489 15.4191 10.25 15.4191H6.25C6.05109 15.4191 5.86032 15.3132 5.71967 15.1246C5.57902 14.936 5.5 14.6802 5.5 14.4135Z" fill="black" fill-opacity="0.5"/>
</svg>
